<svg width="409" height="360" viewBox="0 0 409 360" fill="none" xmlns="http://www.w3.org/2000/svg">
<path d="M383.779 273.501C383.779 273.829 383.778 274.157 383.408 274.485C379.703 275.141 380.444 270.876 377.11 270.22C376.739 270.548 376.369 271.532 375.998 271.86C367.848 278.094 363.402 284.983 367.477 294.825C364.143 293.841 362.29 297.778 358.586 296.794C354.14 295.481 350.805 297.778 348.582 302.043C351.917 302.371 353.028 304.995 355.622 306.308C343.396 321.071 327.094 331.569 308.57 339.443C288.564 347.972 267.446 352.237 246.328 356.83C234.473 359.455 221.876 358.799 209.65 359.783C197.795 360.767 186.31 358.143 174.825 357.158C162.228 355.846 150.002 352.237 137.406 351.909C127.032 351.581 117.77 347.972 108.878 344.364C99.616 340.427 90.354 336.162 82.5738 330.257C74.0526 323.695 62.938 319.759 54.7874 312.541C39.5974 299.09 24.778 285.311 17.7388 266.611C16.6273 263.987 15.1454 262.018 14.0339 259.722C11.4405 254.473 11.8108 248.895 9.21743 243.646C3.66015 232.492 2.54869 220.025 1.80772 207.887C-0.0447088 182.297 -1.897 156.38 4.03077 130.79C4.40126 128.494 5.88324 126.197 6.62421 124.229C7.36519 121.604 9.95845 119.308 8.10602 116.027C7.36505 114.387 8.47646 112.419 9.21743 110.778C12.9223 100.936 19.2205 92.0782 22.1844 81.908C22.5549 80.5958 23.296 79.6116 24.4075 78.6273C34.0401 70.0975 39.5974 58.287 51.0825 50.7414C55.8988 47.4607 59.6036 42.2117 64.4199 38.2748C73.682 30.4012 84.4261 24.824 95.9112 20.231C104.803 16.6222 113.694 12.6854 123.698 10.717C130.737 11.7012 136.665 8.74857 143.333 7.76436C144.074 7.76436 144.445 6.124 145.186 5.13979C147.038 4.15558 148.52 4.15559 150.373 4.48366C156.671 6.12401 162.599 5.79595 168.156 2.18718C169.267 1.53105 170.379 1.53103 171.49 1.8591C171.861 4.15558 172.231 6.45209 175.566 5.46788C179.641 4.1556 183.716 4.48366 187.792 4.48366C189.274 4.48366 190.385 3.8275 191.126 2.51522C192.238 2.18715 193.349 1.85908 194.831 1.53101C195.942 5.13977 197.795 5.13978 200.388 2.51522C201.5 2.51522 202.611 2.51522 203.722 2.51522C207.427 5.13978 211.132 5.13981 214.467 2.18718C215.578 2.18718 216.69 2.18718 217.801 2.18718C218.913 4.48367 220.024 6.78013 224.099 5.79592C228.545 4.81171 233.732 4.48367 235.584 10.3889C238.548 8.74858 240.4 6.78015 242.623 6.12401C246.699 4.81173 245.958 9.73275 248.551 10.717C251.145 11.7012 252.256 13.3415 254.479 9.73274C255.961 7.43626 260.777 9.40469 264.112 13.3415C263.371 13.6696 263 13.9977 263.741 13.9977C263.741 13.9977 264.112 13.6696 264.112 13.3415C266.335 14.6538 268.187 14.3258 270.78 13.6696C275.597 12.6854 280.783 13.6696 284.118 15.9661C286.711 17.9345 293.009 19.2468 290.787 24.824C290.787 25.152 291.157 25.8082 291.528 26.1362C292.639 27.1204 294.121 27.4485 295.603 26.7924C297.455 26.1363 297.455 25.152 296.344 23.8397C295.603 22.5275 293.751 21.5433 295.603 19.9029C296.344 19.9029 296.714 19.9029 297.455 19.5748C301.901 19.5748 303.013 26.7924 308.57 23.1836C308.941 22.8555 309.681 24.4959 308.94 25.1521C307.829 26.7924 306.347 26.7924 304.495 27.1204C301.531 27.7766 298.196 27.7766 296.344 30.4011C297.826 31.7134 299.678 32.0415 300.79 31.3854C305.236 29.745 308.199 31.0573 312.645 33.3538C317.091 35.6503 319.685 39.259 323.389 41.8836C328.206 45.4923 328.206 45.8204 333.392 42.5397C336.727 40.5713 338.209 40.8994 338.95 45.1643C339.32 47.4608 340.802 47.7888 342.655 47.1327C346.73 45.4924 349.323 46.1485 351.176 49.7573C352.287 52.0538 357.845 53.366 353.028 57.3028C351.546 58.6151 353.399 60.9116 355.622 61.5677C358.585 62.2239 361.549 62.552 361.549 66.1607C361.549 67.145 362.661 68.1291 363.772 68.1291C368.589 68.4572 370.071 71.0818 370.071 75.0186C370.071 78.9554 373.034 80.9239 376.739 82.2361C378.962 82.8923 381.185 83.5484 383.408 84.2046C386.001 85.1888 386.001 87.1572 385.26 89.1256C383.778 93.0624 388.224 92.4063 389.706 93.7186C390.077 94.0466 390.447 94.3747 390.447 95.0308C388.965 95.687 386.742 96.015 387.483 97.6554C388.224 98.9677 390.447 98.3115 391.929 98.6396C398.969 110.778 403.785 123.573 407.119 136.696C410.454 150.147 407.86 163.925 408.601 177.376C408.972 186.562 408.972 195.748 408.972 204.934C409.342 213.792 406.008 222.322 403.785 230.852C401.191 241.678 399.339 252.832 390.818 262.018C389.706 261.362 388.965 260.706 387.854 260.378C383.408 258.409 382.667 259.066 381.926 263.331C381.185 266.939 383.038 270.22 383.779 273.501ZM280.413 304.339C280.413 303.683 280.413 303.355 280.413 302.699C280.413 301.715 280.413 300.73 278.931 300.402C278.561 300.402 277.82 300.73 277.449 301.059C276.708 302.371 277.079 303.683 278.561 304.011C279.302 304.339 279.672 304.339 280.413 304.339C279.672 309.916 274.856 309.588 271.151 308.932C265.594 308.276 261.518 309.26 257.813 312.541C256.332 313.853 253.368 312.869 252.997 315.822C254.479 316.806 255.961 318.446 258.184 317.79C260.777 316.806 264.482 317.79 266.335 315.166C267.076 314.181 267.446 312.213 269.298 313.525C275.226 316.806 279.672 312.541 283.377 310.244C287.823 307.62 291.898 304.339 297.085 301.059C293.75 299.418 292.268 297.45 288.934 300.074C285.97 301.715 283.747 304.011 280.413 304.339ZM153.707 305.98C155.189 305.98 156.671 305.98 156.671 304.667C156.671 302.371 154.818 301.715 152.595 301.387C151.114 301.387 149.261 301.387 149.632 303.027C150.002 305.323 151.854 305.98 153.707 305.98ZM122.957 14.9819C122.586 14.6538 122.586 13.9977 122.216 13.9977C121.475 13.6696 120.363 13.9977 119.993 14.9819C119.252 15.9661 120.363 16.2941 121.104 16.2941C122.216 16.2941 122.957 15.9661 122.957 14.9819Z" fill="#DBE9FF"/>
<path d="M382.667 84.2046C380.445 83.5485 378.221 83.2204 375.999 82.2362C372.294 80.9239 369.33 78.9555 369.33 75.0187C369.33 71.0818 368.218 68.4573 363.032 68.1292C361.92 68.1292 360.809 67.145 360.809 66.1608C360.438 62.8801 357.845 62.224 354.881 61.5678C352.658 61.2397 350.806 58.6152 352.288 57.3029C357.104 53.3661 351.547 52.0538 350.435 49.7573C348.583 46.1486 345.619 45.4924 341.914 47.1328C340.432 47.7889 338.58 47.4608 338.209 45.1643C337.468 40.8994 335.986 40.5714 332.652 42.5398C327.465 45.8205 327.465 45.8205 322.649 41.8836C318.944 39.2591 316.35 35.6503 311.905 33.3539C307.459 31.0574 304.865 29.7451 300.049 31.3854C298.567 32.0416 297.085 31.7135 295.603 30.4012C297.456 27.7767 300.79 27.4486 303.754 27.1205C305.606 26.7924 307.459 26.4644 308.2 25.1521C308.57 24.496 308.2 23.1837 307.829 23.1837C301.902 26.4644 300.79 19.2468 296.715 19.5749C295.974 19.5749 295.603 19.5749 294.862 19.903C293.01 21.5433 294.492 22.5275 295.603 23.8398C296.715 25.1521 296.715 26.4644 294.862 26.7925C293.38 27.1205 291.898 27.1205 290.787 26.1363C290.416 25.8082 290.046 25.1521 290.046 24.824C292.269 19.2469 285.971 17.9346 283.377 15.9662C280.043 13.6697 274.856 12.6855 270.04 13.6697C267.446 13.9978 265.594 14.3258 263.371 13.3416C260.037 9.40477 255.22 7.43633 253.738 9.73282C251.515 13.0135 250.404 11.7012 247.811 10.717C245.217 9.40476 245.958 4.8118 241.883 6.12408C239.66 6.78022 237.437 8.74865 234.844 10.389C232.991 4.81181 227.804 5.13985 223.359 5.79599C218.913 6.45213 218.172 4.48374 217.06 2.18726C223.729 2.51533 230.027 2.84338 236.696 2.84338C247.07 2.84338 255.961 6.7802 265.964 7.43634C268.558 7.43634 271.151 8.0925 273.374 9.40478C274.856 10.389 276.338 11.0451 278.19 11.3732C290.787 14.3258 302.642 18.5907 314.868 22.5276C329.317 26.7925 340.062 35.9784 350.435 44.8363C360.809 53.6942 370.441 63.2082 376.369 75.0187C377.11 78.2994 381.926 80.2678 382.667 84.2046Z" fill="#DBE9FF"/>
<path d="M367.477 294.825C363.401 285.311 368.218 278.094 375.998 271.86C376.739 271.532 376.739 270.548 377.11 270.22C380.444 270.876 379.703 275.141 383.408 274.485C380.073 282.686 373.405 288.592 367.477 294.825Z" fill="#DBE9FF"/>
<path d="M355.251 305.979C353.028 304.667 351.546 302.043 348.212 301.714C350.434 297.45 353.769 295.153 358.215 296.465C361.92 297.45 363.772 293.513 367.106 294.497C364.884 300.074 358.956 302.043 355.251 305.979Z" fill="#DBE9FF"/>
<path d="M383.778 273.501C382.667 270.22 381.185 266.939 381.555 263.002C381.926 258.738 383.037 258.081 387.483 260.05C388.595 260.378 389.336 261.034 390.447 261.69C388.595 265.955 387.113 270.22 383.778 273.501Z" fill="#DBE9FF"/>
<path d="M143.333 4.81177C142.592 5.79598 142.222 7.10826 141.481 7.43633C134.812 8.74861 128.884 11.3732 121.845 10.389C128.514 6.45216 135.923 4.81177 143.333 4.81177Z" fill="#DBE9FF"/>
<path d="M189.644 1.85931C188.903 3.17159 187.792 3.82775 186.31 3.82775C182.234 3.82775 178.159 3.49964 174.084 4.81192C170.749 5.79612 170.008 3.49967 170.008 1.20318C176.677 2.84353 183.346 -0.765246 189.644 1.85931Z" fill="#DBE9FF"/>
<path d="M166.674 1.85893C161.117 5.4677 155.189 5.79576 148.891 4.15541C154.448 2.51506 160.376 -0.437553 166.674 1.85893Z" fill="#DBE9FF"/>
<path d="M212.984 1.85907C209.279 4.81169 205.945 4.48365 202.24 2.18716C205.575 0.87488 209.279 0.546791 212.984 1.85907Z" fill="#DBE9FF"/>
<path d="M198.536 2.18714C195.942 4.81169 194.09 4.81168 192.979 1.20292C195.572 -1.42164 197.054 0.87486 198.536 2.18714Z" fill="#DBE9FF"/>
<path d="M391.188 98.3116C389.706 97.9835 387.113 98.9678 386.742 97.3274C386.001 95.6871 388.224 95.359 389.706 94.7029C391.559 95.6871 391.929 96.9993 391.188 98.3116Z" fill="#DBE9FF"/>
<path d="M388.965 93.7189C387.113 92.4067 383.038 93.0628 384.52 89.126C387.113 89.7821 388.595 91.0944 388.965 93.7189Z" fill="#DBE9FF"/>
<path d="M280.413 304.339C283.747 304.011 286.341 301.715 288.564 300.074C292.268 297.45 293.75 299.418 296.714 301.058C291.528 304.339 287.082 307.62 283.006 310.244C279.301 312.541 274.856 316.806 268.928 313.525C267.075 312.541 266.705 314.181 265.964 315.165C264.112 317.79 260.777 316.806 257.813 317.79C255.961 318.446 254.108 316.806 252.626 315.822C252.997 312.869 255.961 313.853 257.443 312.541C261.148 309.26 265.594 307.948 270.78 308.932C274.856 309.588 279.672 309.916 280.413 304.339Z" fill="#DBE9FF"/>
<path d="M153.707 305.979C151.854 305.979 149.632 305.323 149.632 303.355C149.632 301.714 151.484 301.386 152.595 301.714C154.818 301.714 156.671 302.371 156.671 304.995C156.671 305.651 155.189 305.979 153.707 305.979Z" fill="#FACF71"/>
<path d="M280.413 304.339C279.672 304.339 279.302 304.339 278.561 304.011C276.708 303.355 276.709 302.371 277.45 301.058C277.45 300.73 278.561 300.402 278.932 300.402C280.413 300.73 280.413 301.714 280.413 302.699C280.413 303.355 280.413 304.011 280.413 304.339Z" fill="#DBE9FF"/>
<path d="M122.956 14.9818C122.586 15.966 121.845 16.294 121.104 16.294C119.992 16.294 119.251 15.966 119.992 14.9818C120.363 14.3256 121.474 13.9976 122.215 13.9976C122.586 13.9976 122.956 14.6537 122.956 14.9818Z" fill="#DBE9FF"/>
<path d="M262.63 13.3413C262.63 13.6694 262.259 13.9974 262.259 13.9974C261.518 13.9974 261.518 13.6694 262.63 13.3413Z" fill="#DBE9FF"/>
</svg>
