<svg width="454" height="412" viewBox="0 0 454 412" fill="none" xmlns="http://www.w3.org/2000/svg">
<path d="M10.7637 167.079C9.45686 165.259 6.84309 164.046 7.82322 161.316C12.3972 160.407 9.45682 157.07 10.1102 154.644C11.7438 150.701 8.80338 149.185 4.88284 149.488C3.90271 146.758 6.18973 144.635 7.16986 142.209C9.45684 141.299 9.13015 139.479 9.13015 137.963C11.0904 138.266 13.3773 137.053 14.6842 139.176C15.3376 140.086 13.704 141.905 15.991 141.602C17.6246 141.299 18.6047 139.782 17.9513 138.266C15.991 134.02 17.9513 130.077 18.278 126.134C24.1588 123.404 29.713 120.978 36.5739 121.585C38.8609 121.888 41.1478 121.281 42.7814 119.462C33.9602 107.33 33.9602 93.6814 40.8211 81.8528C51.2759 63.655 69.8984 59.4089 91.4614 63.9584C89.8278 56.0727 91.1347 49.4001 93.4217 42.4243C96.3621 33.932 108.124 27.8661 116.291 27.2595C124.786 26.6529 132.627 29.0793 140.141 32.1123C145.042 34.2353 144.715 33.932 147.329 29.0793C151.903 20.587 156.804 12.0947 166.278 6.63533C178.367 -0.0371869 191.762 1.78262 200.583 12.398C201.236 13.3079 202.217 14.2178 203.197 14.8244C204.504 15.7343 206.464 16.0375 207.117 14.2177C208.424 9.6683 212.345 7.84854 215.938 5.42217C218.879 5.72546 220.839 4.20899 223.453 3.2991C224.76 2.69251 226.393 1.47932 227.7 1.78262C233.908 2.9958 240.115 3.90568 244.036 9.06171C245.343 10.8815 245.996 12.0947 248.936 11.4881C250.897 10.8815 251.55 12.398 251.55 14.2177C251.223 15.7342 249.59 17.2507 251.55 19.3738C253.837 19.0705 256.777 18.1606 259.391 18.4639C261.351 19.9804 261.678 22.1035 261.678 24.2265C260.045 24.5298 257.758 23.6199 257.104 25.743C256.124 28.1694 258.411 28.4727 260.045 28.776C262.331 29.3826 263.965 31.2024 266.579 30.5958C267.886 28.4727 265.599 26.9562 265.925 25.1364C268.866 21.1936 272.133 17.554 276.053 14.2177C290.429 2.08589 310.358 4.81555 320.813 20.2837C324.407 25.4397 328.001 30.899 329.307 37.8749C334.861 34.8419 339.435 32.4155 344.663 31.2024C351.85 29.3826 359.038 29.0793 365.572 33.6287C371.453 37.8749 375.374 43.0309 374.72 50.31C374.394 54.2529 374.72 58.499 373.413 62.4419C372.433 64.8683 373.087 66.688 376.681 66.688C380.274 66.3847 384.195 66.9913 387.462 65.7781C395.303 63.3517 402.817 65.1715 410.332 67.5979C419.153 70.3276 424.38 79.4265 423.073 87.9188C421.44 98.8374 418.5 109.15 409.352 117.035C408.698 117.642 408.045 118.552 408.045 119.462C408.371 120.978 410.005 120.675 411.312 120.978C417.846 121.585 424.054 122.798 430.261 124.314C441.696 127.044 444.31 135.84 443.656 144.635C443.003 151.308 441.043 157.677 436.469 163.44C432.548 168.292 433.202 169.505 438.429 173.145C450.517 181.031 455.091 192.253 453.784 205.901C453.458 209.844 453.131 213.483 452.478 217.426C450.191 230.165 441.369 238.96 430.261 245.633C429.281 246.239 427.974 246.543 427.321 248.059C427.647 250.486 429.608 252.305 430.915 254.428C436.795 262.921 439.082 272.626 438.429 282.028C437.776 293.857 430.261 302.349 418.826 307.809C411.312 311.448 403.144 312.965 394.65 312.661C393.016 314.178 393.67 315.998 394.323 317.817C396.283 326.613 394.976 334.499 391.709 342.991C388.115 352.09 380.928 357.853 373.087 362.402C368.513 364.828 361.978 366.345 355.771 364.222C351.524 362.705 347.276 361.795 343.356 360.279C340.089 359.066 338.782 359.672 337.802 362.705C336.168 368.165 334.861 373.927 330.287 378.173C328 377.87 326.694 378.78 326.694 380.903C324.407 380.903 322.773 382.116 321.466 383.633C319.179 385.452 316.239 386.666 313.625 386.059C309.051 384.846 305.457 385.452 303.17 388.789C300.557 387.272 304.151 384.239 300.557 383.936C298.27 383.633 295.003 382.723 294.349 385.452C292.716 391.215 290.429 389.092 286.508 387.272C283.894 386.059 281.281 385.452 279.32 383.633C277.033 381.206 274.42 381.51 271.479 382.723C272.133 379.69 271.479 376.96 267.559 376.657C264.292 376.354 263.965 378.477 263.965 380.903C263.638 381.813 263.312 382.723 262.985 383.936C259.391 384.846 257.104 386.362 259.064 390.305C259.391 391.215 259.391 392.125 259.391 393.035C258.084 396.978 255.144 399.404 251.223 401.527C247.956 401.527 246.323 403.65 245.016 406.077C244.036 406.077 242.729 405.773 242.075 406.38C237.828 408.806 233.581 409.716 228.353 407.896C225.413 406.987 223.126 408.2 221.493 410.929C212.345 411.536 205.484 407.593 199.276 402.134C195.029 398.494 190.782 394.248 189.475 388.485C189.148 386.666 187.188 386.362 185.881 387.879C184.247 389.092 183.267 390.912 181.96 392.428C180.654 393.945 179.347 395.765 177.713 396.674C170.526 400.617 162.031 400.921 154.517 400.921C147.656 400.921 141.775 396.371 137.201 390.609C131.647 383.936 128.38 376.354 126.746 368.165C126.42 366.345 126.42 364.222 124.459 362.402C119.885 365.435 114.658 366.648 109.43 367.861C86.5607 373.321 64.3444 357.852 67.6115 336.925C68.5916 330.859 70.5518 325.703 73.4922 320.547C73.819 319.637 74.4724 318.727 73.4922 317.817C72.5121 316.907 71.532 317.211 70.5519 317.514C63.3642 320.85 55.8499 321.457 48.0088 319.94C38.5342 318.121 31.3465 313.875 25.4657 306.595C12.724 291.734 21.2185 263.527 41.8013 254.428C42.4547 254.125 43.1081 253.822 44.7417 252.912C37.2273 250.789 30.6931 248.666 23.5054 247.149C13.7041 245.33 6.51644 239.264 2.26919 231.681C-1.65135 224.402 -0.0178097 215.607 3.57602 207.721C7.49655 198.622 14.0307 191.646 22.5252 186.187C26.4458 183.76 26.1191 183.76 22.5252 180.121C20.8917 178.301 19.2581 176.481 17.6246 174.662C15.991 171.325 15.3377 167.989 10.7637 167.079ZM12.0705 145.545C10.7637 145.848 9.4568 145.848 9.78351 147.365C9.78351 147.668 10.1102 147.668 10.1102 147.971C11.7438 147.668 11.7438 146.455 12.0705 145.545C12.724 145.242 13.0507 144.938 12.3973 144.938C12.3973 144.938 12.0705 145.242 12.0705 145.545Z" fill="#EBEAFF"/>
<path d="M270.499 383.026C273.44 381.813 276.053 381.813 278.34 383.936C280.3 386.059 283.241 386.362 285.528 387.575C289.122 389.395 291.735 391.215 293.369 385.756C294.022 383.026 297.289 383.936 299.576 384.239C302.844 384.542 299.576 387.879 302.19 389.092C304.477 385.452 308.071 384.846 312.645 386.362C315.259 386.969 318.199 385.756 320.486 383.936C322.12 382.723 323.426 381.206 325.713 381.206C325.713 381.509 325.713 381.813 325.387 381.813C320.486 388.182 303.824 394.248 295.656 393.338C288.795 392.428 282.261 391.215 276.38 388.182C274.093 386.666 271.153 385.756 270.499 383.026Z" fill="#E4CCFF"/>
<path d="M259.391 19.0705C256.451 18.7672 253.837 19.6771 251.55 19.9804C249.59 17.8574 251.223 16.3409 251.55 14.8244C251.877 13.0046 250.897 11.4881 248.936 12.0947C245.996 12.7013 245.343 11.1848 244.036 9.66834C240.115 4.209 233.581 3.29913 227.7 2.38924C226.393 2.08595 224.76 3.29913 223.453 3.90573C221.166 4.81561 218.879 6.33209 215.938 6.02879C218.225 1.78264 222.799 1.17604 226.72 0.569447C234.561 -0.643738 242.729 -0.340405 248.61 5.72552C253.184 9.66837 257.104 13.6112 259.391 19.0705Z" fill="#E4CCFF"/>
<path d="M18.2781 126.437C17.9514 130.38 15.9911 134.626 17.9514 138.569C18.6048 140.086 17.6247 141.602 15.9911 141.906C13.7041 142.209 15.011 140.389 14.6843 139.479C13.3774 137.356 11.0905 138.569 9.13025 138.266C10.4371 133.11 13.0507 128.864 18.2781 126.437Z" fill="#E4CCFF"/>
<path d="M220.512 410.626C222.146 408.2 224.76 406.683 227.373 407.593C232.274 409.413 236.848 408.503 241.095 406.077C241.749 405.773 243.056 405.773 244.036 405.773C243.709 406.38 243.709 407.593 243.382 407.593C236.195 411.233 228.68 413.659 220.512 410.626Z" fill="#E4CCFF"/>
<path d="M4.88305 149.791C9.1303 149.488 11.744 151.004 10.1105 154.947C9.13032 157.07 12.3974 160.71 7.82343 161.62C5.20974 157.98 4.55634 154.037 4.88305 149.791Z" fill="#E4CCFF"/>
<path d="M265.925 25.743C265.599 27.5628 267.886 29.0793 266.579 31.2024C263.965 31.809 262.331 29.9892 260.045 29.3826C258.411 29.0793 256.124 28.776 257.104 26.3496C257.758 24.2265 260.045 24.8331 261.678 24.8331C262.985 25.743 263.965 26.6529 265.925 25.743Z" fill="#E4CCFF"/>
<path d="M258.411 393.035C258.411 392.125 258.411 391.215 258.084 390.305C256.124 386.362 258.411 384.846 262.005 383.936C262.985 387.879 261.678 390.609 258.411 393.035Z" fill="#E4CCFF"/>
<path d="M262.985 380.903C262.985 378.78 263.311 376.657 266.579 376.657C270.826 376.96 271.153 379.387 270.499 382.723C267.885 382.42 265.925 379.993 262.985 380.903Z" fill="#E4CCFF"/>
<path d="M10.7637 167.079C15.3376 167.686 16.3177 171.022 16.6444 174.662C13.0506 173.145 11.0904 171.022 10.7637 167.079Z" fill="#E4CCFF"/>
<path d="M244.036 405.773C245.343 403.347 246.976 401.527 250.243 401.224C249.59 404.56 247.303 405.773 244.036 405.773Z" fill="#E4CCFF"/>
<path d="M8.80354 138.266C8.80354 140.086 9.13023 141.905 6.84325 142.512C5.86311 140.389 6.84327 139.176 8.80354 138.266Z" fill="#E4CCFF"/>
<path d="M325.713 381.206C325.713 379.083 327.02 378.173 329.307 378.477C328.654 379.993 327.674 381.206 325.713 381.206Z" fill="#E4CCFF"/>
<path d="M12.0707 145.545C11.744 146.455 11.744 147.972 10.1104 147.668C9.78371 147.668 9.78369 147.365 9.78369 147.062C9.45697 145.545 10.7639 145.545 12.0707 145.545Z" fill="#E4CCFF"/>
<path d="M12.0704 145.545C12.0704 145.242 12.3972 144.939 12.3972 144.939C13.0506 144.939 12.7239 145.242 12.0704 145.545Z" fill="#E4CCFF"/>
</svg>
