<svg width="502" height="443" viewBox="0 0 502 443" fill="none" xmlns="http://www.w3.org/2000/svg">
<path d="M65.3579 86.715C71.4948 88.1274 77.3249 90.6696 83.7686 91.5171C85.6097 86.715 83.1552 82.478 81.3141 78.5234C78.2456 71.1791 77.0182 63.5524 77.0182 55.6432C77.325 48.0165 81.621 45.1918 88.9853 48.8639C96.6564 52.2535 103.714 56.7731 111.078 60.7277C113.226 61.8576 115.067 63.5524 117.829 62.9875C118.749 60.7277 118.749 58.4679 118.136 56.2081C115.681 46.0392 116.908 35.5877 116.908 25.1363C116.908 21.7466 118.135 18.6394 121.818 17.5096C125.5 16.3797 128.875 17.2271 131.637 20.0518C139.922 28.2435 148.207 36.4351 156.491 44.6268C157.105 45.1918 157.719 46.0392 158.332 46.6041C159.253 47.1691 160.173 48.2989 161.708 47.4515C162.628 46.8866 162.935 46.0392 162.935 45.1918C162.935 42.932 162.935 40.6722 162.935 38.4124C162.935 30.2208 162.321 21.7466 166.617 14.1199C167.231 12.99 167.231 11.0127 166.924 9.31789C166.617 6.49318 167.538 3.66847 170.606 2.53858C173.675 1.40869 176.743 2.53858 179.198 4.51588C183.494 7.90554 185.949 11.8601 189.017 16.0972C194.54 23.4415 197.609 32.1981 204.973 38.4124C205.587 38.9774 206.2 39.2599 207.121 39.8248C210.496 30.7857 215.099 22.8765 219.395 14.6848C220.622 12.7075 221.849 10.7302 223.384 9.03542C227.066 5.08082 231.362 4.79835 234.123 10.4478C237.192 16.6621 240.26 23.159 243.329 29.3734C244.249 31.3507 245.784 33.328 246.704 35.3053C248.238 38.13 250.079 36.7176 251.92 35.5877C253.455 35.8702 256.523 36.4351 256.83 36.4351C258.364 32.4805 263.887 33.328 265.729 29.9383C266.035 29.3734 266.035 28.8084 266.035 27.961C264.501 20.3343 267.263 14.1199 272.479 8.47048C276.161 4.51588 275.547 4.23341 280.15 6.77565C281.378 7.34059 283.219 6.77565 283.833 8.47048C280.457 15.5323 282.605 21.1817 289.969 24.8538C289.969 25.7012 289.969 26.8311 289.969 27.6785C288.435 33.8929 291.197 38.9774 294.879 43.7794C294.879 43.7794 295.186 43.7794 295.492 44.0619C295.492 44.3443 295.8 44.3443 295.8 44.6268C300.095 51.6886 299.175 52.536 307.153 47.1691C313.596 42.932 320.04 39.2599 326.177 34.7403C331.7 30.7857 336.61 25.9837 342.44 22.3116C345.202 20.3343 347.349 18.6394 350.725 20.6167C355.327 23.159 357.169 26.5486 355.941 30.7857C352.566 42.0846 353.793 53.6659 352.566 64.9648C352.566 65.2472 352.873 65.2472 353.18 66.0946C358.089 64.3998 363.612 62.9875 368.522 60.7277C378.955 55.9257 390.308 53.101 400.741 47.734C405.343 45.4742 410.867 46.3216 414.549 49.4288C418.231 52.536 419.151 57.0556 416.697 61.8576C411.173 72.0265 405.65 82.478 401.048 93.2119C400.741 94.0593 400.127 94.9067 399.82 95.7541C399.206 96.884 398.286 98.2964 399.513 99.4263C400.741 100.556 402.275 100.274 403.809 99.7087C409.639 97.449 415.776 97.449 421.606 96.3191C428.971 94.6242 436.335 93.2119 444.006 93.2119C447.995 93.2119 451.984 93.2119 453.825 97.449C455.36 101.686 456.28 105.641 452.598 109.313C444.62 117.787 439.71 128.238 433.88 138.125C433.573 138.972 433.266 139.82 432.96 140.95C436.335 141.797 439.404 142.927 443.086 141.797C444.006 141.514 445.233 141.514 445.847 141.797C453.825 144.622 462.724 143.774 471.009 145.752C474.998 146.599 479.907 146.881 481.748 151.683C483.589 156.768 483.896 158.463 479.293 161.852C471.315 167.784 463.337 173.716 455.052 179.366C453.211 180.778 451.064 181.908 449.836 183.885C450.143 184.45 450.45 185.015 450.757 185.015C459.655 186.145 467.633 190.382 476.839 190.665C482.669 190.947 487.885 192.359 490.647 198.009C492.488 201.963 492.181 203.941 489.113 207.048C487.578 208.46 485.737 209.59 483.896 210.438C474.077 215.804 464.258 221.171 454.132 227.103C469.168 233.883 482.669 241.509 496.477 248.854C500.159 250.831 502.921 252.808 501.386 257.328C500.773 258.74 501.693 260.717 502 262.695C497.09 264.672 492.181 265.237 486.964 266.084C477.145 267.497 467.326 269.474 457.814 272.864C451.37 275.123 451.37 275.406 455.973 279.643C463.031 286.14 470.088 292.354 476.839 298.851C478.987 300.828 480.521 303.088 481.748 305.63C483.896 309.867 483.283 312.127 478.373 313.54C471.009 315.799 463.644 318.059 455.666 319.189C447.688 320.319 440.017 322.296 431.732 322.296C427.743 322.296 427.436 323.709 428.97 327.381C432.039 334.16 436.642 339.809 440.631 345.741C444.313 351.673 446.768 358.452 448.915 365.232C450.45 370.034 447.075 373.141 441.551 373.424C431.732 373.988 422.22 372.576 412.708 370.316C406.571 368.621 400.741 366.927 394.604 365.232C388.774 363.537 388.467 364.667 388.467 370.034C388.467 378.508 387.853 387.265 387.546 395.739C387.239 400.541 385.398 405.06 386.012 409.862C386.319 411.275 385.398 412.405 384.171 413.534C381.409 415.512 371.59 415.229 368.829 413.252C362.078 407.603 354.1 403.083 348.577 395.739C345.202 391.219 338.451 389.524 334.462 385.287C333.235 382.18 332.007 383.31 330.78 385.005C329.859 386.135 332.007 388.112 330.166 388.677C325.563 389.807 327.404 392.632 327.404 395.174C327.711 399.693 327.405 403.365 321.881 405.625C320.04 406.19 319.12 408.45 317.586 410.145C320.654 411.275 322.802 412.969 325.563 413.252C325.257 414.099 325.257 414.947 324.95 415.794C322.188 417.772 313.596 421.161 310.528 421.161C308.994 421.161 307.46 421.161 306.846 422.856C306.232 424.551 308.073 425.116 308.994 425.963C310.221 426.811 312.983 426.246 312.676 428.505C312.062 431.33 312.983 433.025 314.517 435.285C315.744 437.262 312.676 440.369 310.835 439.239C307.766 437.544 304.698 438.674 301.936 437.827C300.095 437.544 299.482 436.697 299.482 435.002C301.323 434.437 303.47 435.567 304.698 435.285C306.539 435.002 307.46 432.742 307.153 429.918C301.63 433.307 297.641 431.613 294.879 426.811C293.958 425.116 292.117 424.268 289.969 424.268C283.833 418.901 279.844 412.122 275.855 405.625C275.241 404.778 274.934 403.365 274.32 402.518C272.172 400.258 269.411 400.258 268.183 403.365C264.501 412.405 258.978 420.879 256.216 430.2C254.989 433.872 252.841 436.697 250.386 439.522C247.011 443.476 238.726 442.911 235.044 438.674C228.293 430.483 222.77 421.444 218.167 412.122C216.633 408.732 215.713 408.732 213.258 410.992C208.655 415.229 204.666 420.031 198.836 423.138C196.688 424.551 194.54 425.963 191.779 426.811C190.551 427.093 188.403 427.658 188.096 428.788C185.948 433.025 181.653 433.025 177.664 433.307C171.527 433.872 169.072 432.742 168.458 427.376C167.845 422.009 166.004 416.924 166.924 411.275C167.538 406.755 165.697 401.671 164.776 396.304C160.48 396.021 158.639 398.846 156.185 401.106C149.127 407.885 141.149 413.817 132.557 418.901C128.568 421.444 123.966 420.879 119.363 420.879C117.522 420.879 116.908 420.031 116.295 418.619C113.226 410.427 111.078 401.953 110.158 393.196C109.237 385.57 109.237 377.943 110.464 370.316C111.385 365.514 109.851 364.949 104.634 367.209C93.5879 372.294 82.5415 377.661 70.5745 381.333C69.0403 381.615 67.8128 382.463 66.2786 382.745C60.7553 383.875 56.4594 381.333 55.8457 376.248C55.5389 372.859 55.2323 369.469 56.4596 366.079C59.2213 357.605 61.9827 348.848 66.5853 340.939C67.8127 338.962 68.7333 336.985 69.347 334.725C70.8813 331.053 70.2676 330.488 66.2786 331.053C58.6074 332.183 51.243 331.335 43.5719 331.618C38.3555 331.9 33.446 332.465 28.2296 332.748C20.5584 333.03 15.0351 328.511 16.2625 321.731C16.8762 318.059 20.5585 315.234 23.3201 312.692C29.7639 306.76 36.5146 301.393 42.9583 295.744C46.6405 292.637 50.3227 289.529 53.698 286.422C52.4706 283.88 50.3227 284.445 48.7885 284.445C37.742 282.468 27.3092 278.796 16.8764 274.558C14.1148 273.429 11.6601 272.299 8.8985 271.451C6.44374 270.604 2.45444 271.169 2.45444 267.214C2.45444 263.26 1.22735 259.588 5.83004 256.198C11.6601 251.961 18.7173 250.266 25.4679 247.441C31.6048 244.899 36.8213 241.227 43.2651 237.272C30.9913 231.34 19.6379 225.973 8.28459 220.324C8.28459 218.347 11.0464 215.804 6.13682 214.957C2.45466 214.11 0.920432 208.46 3.06835 206.2C4.90943 204.223 7.67112 202.528 10.4327 202.528C16.8765 201.963 23.9337 203.941 29.7638 199.421C30.0707 199.139 30.6844 199.421 31.298 199.421C38.3555 198.856 43.8789 194.337 50.6295 192.642C50.9363 192.642 50.9362 191.794 51.243 191.512H51.5498C55.232 190.1 55.2322 187.84 52.1637 186.145C46.9473 183.603 44.7993 177.953 38.9692 176.258C38.3555 175.976 38.3557 174.564 38.0489 173.716C38.6626 173.434 38.9693 173.151 38.3557 173.151C38.3557 173.151 38.0489 173.434 38.0489 173.716C34.6736 173.151 34.3667 171.739 36.5147 169.762C37.742 168.349 37.1282 166.654 35.594 167.502C32.2187 169.479 30.6844 166.937 28.2296 166.09C33.1391 159.31 33.446 156.203 29.7638 147.164C29.457 146.317 29.764 145.469 30.3777 145.469C33.753 145.187 37.742 142.079 39.8899 142.927C44.1857 144.622 48.1746 142.644 51.243 143.492C56.7663 145.187 53.391 141.232 54.3115 140.385C55.232 140.385 56.1527 140.385 57.0732 140.385C60.1417 147.446 66.2786 142.362 72.1087 144.057C70.2676 141.232 71.1881 138.407 67.8128 137.277C67.1991 136.712 66.5855 136.148 65.9718 135.583C65.665 132.758 65.665 129.368 61.0623 129.368C60.7555 129.368 60.4485 129.368 60.1417 129.086C59.528 124.849 57.9936 121.177 53.084 119.764C52.7772 119.482 52.7773 119.199 52.7773 118.917C53.391 115.81 52.7775 113.55 48.7885 112.985C48.7885 111.008 48.7884 109.313 46.0268 109.03C45.72 108.748 45.72 108.465 45.72 107.9C46.9474 102.816 43.265 101.121 39.276 99.4263C38.9691 98.8613 38.6624 98.5788 38.6624 98.0139C38.0487 92.6469 40.1967 87.8449 42.9583 83.3254C43.8789 83.3254 44.7994 83.3254 46.0268 83.0429C46.6405 84.1728 47.8679 84.1728 49.0953 84.7377C52.4706 86.4326 57.0733 85.3027 59.5281 89.2573C60.1418 90.1047 64.4373 90.1047 65.3579 86.715Z" fill="#E1D6FF"/>
<path d="M38.6626 173.151C38.9694 173.999 38.9696 175.411 39.5832 175.693C45.4133 177.388 47.8679 183.038 52.7774 185.58C55.8459 187.275 55.846 189.535 52.1639 190.947C45.7201 185.015 38.9694 179.083 32.5256 173.151C27.0024 168.067 21.7862 162.982 16.5698 157.615C14.4219 155.638 13.808 152.813 12.8874 150.271C10.7395 143.209 13.1945 139.82 21.1725 139.82C32.5258 139.537 43.5722 139.82 54.9256 139.82C54.005 140.667 57.3803 144.622 51.8571 142.927C48.7886 142.079 44.7994 144.057 40.5036 142.362C38.3556 141.514 34.6736 144.622 30.9914 144.904C30.3777 144.904 30.071 146.034 30.3779 146.599C34.06 155.638 33.7532 159.028 28.8436 165.525C31.2984 166.372 32.8323 168.914 36.2076 166.937C37.7419 166.089 38.6626 167.784 37.1283 169.197C35.2873 171.456 35.5941 172.869 38.6626 173.151Z" fill="#E4CCFF"/>
<path d="M290.276 25.4188C282.912 21.7467 280.764 16.0972 284.139 9.03546C283.219 7.62311 281.378 8.18805 280.457 7.34063C275.855 4.79839 276.162 5.08086 272.786 9.03546C267.57 14.6849 264.808 20.8993 266.342 28.526C266.342 29.3734 266.342 29.6559 266.035 30.5033C264.194 33.8929 258.671 33.0455 257.137 37.0001C257.137 37.2826 254.068 36.4352 252.227 36.1527C256.523 27.961 259.899 19.2044 265.422 11.2952C266.956 9.03546 268.49 6.49322 270.331 4.51592C274.627 -0.568564 278.002 -1.13351 284.139 1.69121C285.674 2.53862 287.208 3.38604 287.515 5.08086C288.742 11.5777 290.276 17.7921 291.504 24.2889C291.197 24.8539 290.583 25.1363 290.276 25.4188Z" fill="#E4CCFF"/>
<path d="M52.1638 190.947C51.857 191.23 51.8568 192.077 51.5499 192.077C44.7993 193.772 39.2763 198.291 32.2188 198.856C31.6051 198.856 30.9915 198.856 30.6846 198.856C24.8545 203.376 18.1038 201.681 11.3532 201.964C8.89839 202.246 5.82985 203.658 3.98877 205.636C1.84085 207.895 3.37508 213.545 7.05723 214.392C11.9668 215.522 9.20538 217.782 9.20538 219.759C3.37531 218.064 0 214.957 0 208.743C0 203.941 0.920613 201.399 5.83015 199.986C9.20546 199.139 12.8876 198.574 16.5698 198.009C28.5368 196.879 40.1968 193.489 52.1638 190.947Z" fill="#E4CCFF"/>
<path d="M302.243 437.545C305.005 438.392 308.38 437.262 311.142 438.957C312.983 440.087 316.051 436.98 314.824 435.002C313.597 432.743 312.369 430.765 312.983 428.223C313.597 425.963 310.528 426.811 309.301 425.681C308.073 424.833 306.539 424.268 307.153 422.574C307.767 420.879 309.301 421.161 310.835 420.879C313.597 420.596 322.495 417.489 325.257 415.512C324.03 422.009 322.802 428.788 319.734 434.72C316.051 442.912 308.994 443.759 302.243 437.545ZM318.813 428.788C319.12 428.506 319.12 427.941 319.427 427.658C319.12 427.376 318.506 427.093 318.199 427.093C317.893 427.093 317.586 427.941 317.586 428.223C317.893 428.506 318.506 428.788 318.813 428.788Z" fill="#E4CCFF"/>
<path d="M325.87 412.97C323.109 412.687 320.961 410.992 317.893 409.862C319.427 408.168 320.654 406.19 322.188 405.343C327.712 403.366 328.018 399.411 327.711 394.891C327.405 392.632 325.87 389.524 330.473 388.395C332.314 388.112 330.167 385.852 331.087 384.722C332.314 383.028 333.849 381.615 334.769 385.005C331.087 392.914 328.939 401.106 327.098 409.58C327.098 411.275 326.791 412.405 325.87 412.97Z" fill="#E4CCFF"/>
<path d="M290.276 423.986C292.424 423.704 294.265 424.833 295.186 426.528C297.947 431.33 301.936 433.025 307.46 429.635C308.073 432.46 306.846 435.002 305.005 435.002C303.471 435.285 301.629 434.437 299.788 434.72C295.186 432.178 292.117 428.506 290.276 423.986Z" fill="#E4CCFF"/>
<path d="M43.2651 82.478C40.5034 86.9976 38.0486 91.7996 38.9691 97.1665C34.6733 93.2119 34.6733 85.3027 38.9691 82.1955C40.1965 81.0657 41.7308 81.0657 43.2651 82.478Z" fill="#E4CCFF"/>
<path d="M295.8 44.6267C295.493 44.6267 295.186 44.6268 295.186 44.3443C291.504 39.5423 288.742 34.4578 290.276 28.2434C292.117 29.0908 292.731 30.5032 293.345 32.4805C294.572 36.4351 296.106 40.3897 295.8 44.6267Z" fill="#E4CCFF"/>
<path d="M65.3581 86.715C64.4376 90.3872 60.4489 90.1047 59.5283 88.6923C57.0736 84.4553 52.4708 85.5852 49.0955 84.1728C48.175 83.6079 46.9476 83.6079 46.027 82.478C53.0845 81.913 59.2212 83.8903 65.3581 86.715Z" fill="#E4CCFF"/>
<path d="M68.7339 136.713C72.1092 137.56 71.1883 140.385 73.0294 143.492C67.1993 141.797 61.0627 146.882 57.9943 139.82C60.449 139.82 63.2106 139.537 65.6654 139.537C67.8133 139.537 68.427 138.125 68.7339 136.713Z" fill="#E4CCFF"/>
<path d="M39.5833 98.5789C43.5723 99.9912 47.2544 101.969 46.027 107.053C42.038 105.641 39.5833 102.816 39.5833 98.5789Z" fill="#E4CCFF"/>
<path d="M53.6982 118.917C58.6078 120.329 60.4486 124.001 60.7555 128.238C55.5391 127.109 56.153 122.307 53.6982 118.917Z" fill="#E4CCFF"/>
<path d="M61.6761 128.803C66.2788 128.803 66.2787 132.193 66.5855 135.018C63.8239 133.888 62.5966 131.345 61.6761 128.803Z" fill="#E4CCFF"/>
<path d="M49.0955 112.138C53.0845 112.703 53.698 114.962 53.0843 118.069C50.6295 116.94 50.0161 114.68 49.0955 112.138Z" fill="#E4CCFF"/>
<path d="M46.3335 108.183C49.0951 108.465 49.0952 110.443 49.0952 112.138C46.6404 111.855 46.0267 110.16 46.3335 108.183Z" fill="#E4CCFF"/>
<path d="M38.6627 173.151C38.6627 172.869 38.9694 172.586 38.9694 172.586C39.5831 172.869 39.5832 173.151 38.6627 173.151Z" fill="#E4CCFF"/>
<path d="M318.813 428.788C318.507 428.505 317.893 428.505 317.586 428.223C317.586 427.941 317.893 427.376 318.199 427.093C318.506 427.093 319.12 427.376 319.427 427.658C319.427 428.223 319.12 428.505 318.813 428.788Z" fill="#E4CCFF"/>
</svg>
