<svg width="530" height="95" viewBox="0 0 530 95" fill="none" xmlns="http://www.w3.org/2000/svg">
<path d="M27.2 70.944C30.4 70.944 33.216 70.08 35.648 68.352C38.144 66.624 39.392 64.032 39.392 60.576C39.392 57.056 38.048 54.368 35.36 52.512C32.736 50.656 28.96 49.056 24.032 47.712C19.168 46.304 15.616 45.088 13.376 44.064C11.2 43.04 9.12 41.696 7.136 40.032C3.168 36.704 1.184 31.552 1.184 24.576C1.184 18.88 3.2 13.984 7.232 9.888C11.328 5.792 16.896 3.744 23.936 3.744C27.328 3.744 30.848 4.256 34.496 5.27999C38.208 6.24 40.512 6.72 41.408 6.72C42.304 6.72 43.104 6.08 43.808 4.8H44.864L45.536 24.192H44C40.928 18.624 37.696 14.176 34.304 10.848C30.976 7.456 27.328 5.75999 23.36 5.75999C19.456 5.75999 16.416 6.688 14.24 8.544C12.064 10.336 10.976 12.768 10.976 15.84C10.976 18.848 12.256 21.184 14.816 22.848C17.44 24.448 20.64 25.76 24.416 26.784C28.192 27.808 30.656 28.512 31.808 28.896C33.024 29.28 34.496 29.824 36.224 30.528C38.016 31.168 39.456 31.872 40.544 32.64C41.696 33.344 42.88 34.272 44.096 35.424C45.376 36.512 46.368 37.728 47.072 39.072C48.8 42.144 49.664 45.792 49.664 50.016C49.664 56.928 47.488 62.496 43.136 66.72C38.848 70.88 33.184 72.96 26.144 72.96C22.496 72.96 18.304 72.48 13.568 71.52C8.896 70.56 6.304 70.08 5.792 70.08C4.896 70.08 4.032 71.04 3.2 72.96H1.856L0.896 50.112H2.528C5.344 55.68 8.928 60.544 13.28 64.704C17.696 68.864 22.336 70.944 27.2 70.944ZM252.481 70.944C255.681 70.944 258.497 70.08 260.929 68.352C263.425 66.624 264.673 64.032 264.673 60.576C264.673 57.056 263.329 54.368 260.641 52.512C258.017 50.656 254.241 49.056 249.313 47.712C244.449 46.304 240.897 45.088 238.657 44.064C236.481 43.04 234.401 41.696 232.417 40.032C228.449 36.704 226.465 31.552 226.465 24.576C226.465 18.88 228.481 13.984 232.513 9.888C236.609 5.792 242.177 3.744 249.217 3.744C252.609 3.744 256.129 4.256 259.777 5.27999C263.489 6.24 265.793 6.72 266.689 6.72C267.585 6.72 268.385 6.08 269.089 4.8H270.145L270.817 24.192H269.281C266.209 18.624 262.977 14.176 259.585 10.848C256.257 7.456 252.609 5.75999 248.641 5.75999C244.737 5.75999 241.697 6.688 239.521 8.544C237.345 10.336 236.257 12.768 236.257 15.84C236.257 18.848 237.537 21.184 240.097 22.848C242.721 24.448 245.921 25.76 249.697 26.784C253.473 27.808 255.937 28.512 257.089 28.896C258.305 29.28 259.777 29.824 261.505 30.528C263.297 31.168 264.737 31.872 265.825 32.64C266.977 33.344 268.161 34.272 269.377 35.424C270.657 36.512 271.649 37.728 272.353 39.072C274.081 42.144 274.945 45.792 274.945 50.016C274.945 56.928 272.769 62.496 268.417 66.72C264.129 70.88 258.465 72.96 251.425 72.96C247.777 72.96 243.585 72.48 238.849 71.52C234.177 70.56 231.585 70.08 231.073 70.08C230.177 70.08 229.313 71.04 228.481 72.96H227.137L226.177 50.112H227.809C230.625 55.68 234.209 60.544 238.561 64.704C242.977 68.864 247.617 70.944 252.481 70.944Z" fill="#4E1FC2"/>
<path d="M54.5225 -5.72205e-06H77.6585V35.136C78.6825 32.192 80.2505 29.824 82.3625 28.032C84.4745 26.24 87.6745 25.344 91.9625 25.344C101.883 25.344 106.843 30.688 106.843 41.376V70.272H112.219V72H85.0505V70.272H88.9865V39.072C88.9865 35.232 88.7305 32.768 88.2185 31.68C87.7065 30.528 86.7785 29.952 85.4345 29.952C83.3865 29.952 81.5625 31.296 79.9625 33.984C78.4265 36.672 77.6585 39.936 77.6585 43.776V70.272H81.7865V72H54.5225V70.272H59.8025V1.72799H54.5225V-5.72205e-06ZM144.687 53.088V44.928C144.687 38.72 144.335 34.208 143.631 31.392C142.991 28.512 141.455 27.072 139.023 27.072C137.615 27.072 136.463 27.488 135.567 28.32C134.735 29.088 134.127 30.4 133.743 32.256C133.167 35.136 132.879 39.52 132.879 45.408V52.896C132.879 59.872 133.071 64.064 133.455 65.472C133.903 66.88 134.351 68.032 134.799 68.928C135.503 70.464 136.879 71.232 138.927 71.232C141.423 71.232 143.055 69.792 143.823 66.912C144.399 64.864 144.687 60.256 144.687 53.088ZM138.735 72.96C130.735 72.96 124.687 70.912 120.591 66.816C116.495 62.72 114.447 56.864 114.447 49.248C114.447 41.568 116.623 35.68 120.975 31.584C125.391 27.424 131.567 25.344 139.503 25.344C147.439 25.344 153.359 27.264 157.263 31.104C161.167 34.88 163.119 40.672 163.119 48.48C163.119 64.8 154.991 72.96 138.735 72.96ZM200.844 46.176C200.844 39.584 200.524 35.168 199.884 32.928C199.244 30.624 197.996 29.472 196.14 29.472C194.284 29.472 192.62 30.688 191.148 33.12C189.676 35.488 188.94 38.688 188.94 42.72V60.288C188.94 63.04 189.484 65.376 190.572 67.296C191.66 69.216 193.26 70.176 195.372 70.176C197.484 70.176 198.924 68.768 199.692 65.952C200.46 63.136 200.844 58.208 200.844 51.168V46.176ZM188.748 26.304V33.888C191.244 28.192 195.66 25.344 201.996 25.344C207.5 25.344 211.756 27.328 214.764 31.296C217.836 35.264 219.372 41.28 219.372 49.344C219.372 57.408 217.708 63.36 214.38 67.2C211.116 71.04 206.188 72.96 199.596 72.96C196.524 72.96 194.22 72.576 192.684 71.808C191.148 71.04 189.9 69.856 188.94 68.256V93.12H201.324V94.848H165.804V93.12H171.084V28.032H165.996V26.304H188.748ZM293.916 19.68C290.524 19.68 288.092 18.816 286.62 17.088C285.212 15.36 284.508 13.216 284.508 10.656C284.508 8.096 285.276 5.984 286.812 4.32C288.412 2.656 290.812 1.824 294.012 1.824C297.212 1.824 299.644 2.592 301.308 4.128C302.972 5.6 303.804 7.744 303.804 10.56C303.804 13.312 303.004 15.52 301.404 17.184C299.804 18.848 297.308 19.68 293.916 19.68ZM279.42 26.304H302.94V70.272H308.316V72H279.804V70.272H285.084V28.032H279.42V26.304ZM310.273 26.304H333.409V35.136C335.521 28.608 340.161 25.344 347.329 25.344C354.561 25.344 358.945 28.8 360.481 35.712C362.721 28.8 367.425 25.344 374.593 25.344C384.001 25.344 388.705 30.688 388.705 41.376V70.272H394.081V72H367.489V70.272H370.849V39.072C370.849 34.208 370.433 31.36 369.601 30.528C369.217 30.144 368.705 29.952 368.065 29.952C366.209 29.952 364.577 31.2 363.169 33.696C361.761 36.192 361.057 39.36 361.057 43.2V70.272H364.513V72H339.841V70.272H343.201V39.072C343.201 34.208 342.785 31.36 341.953 30.528C341.569 30.144 341.057 29.952 340.417 29.952C338.625 29.952 336.993 31.328 335.521 34.08C334.113 36.768 333.409 40 333.409 43.776V70.272H336.865V72H310.273V70.272H315.553V28.032H310.273V26.304ZM430.531 46.176C430.531 39.584 430.211 35.168 429.571 32.928C428.931 30.624 427.683 29.472 425.827 29.472C423.971 29.472 422.307 30.688 420.835 33.12C419.363 35.488 418.627 38.688 418.627 42.72V60.288C418.627 63.04 419.171 65.376 420.259 67.296C421.347 69.216 422.947 70.176 425.059 70.176C427.171 70.176 428.611 68.768 429.379 65.952C430.147 63.136 430.531 58.208 430.531 51.168V46.176ZM418.435 26.304V33.888C420.931 28.192 425.347 25.344 431.683 25.344C437.187 25.344 441.443 27.328 444.451 31.296C447.523 35.264 449.059 41.28 449.059 49.344C449.059 57.408 447.395 63.36 444.067 67.2C440.803 71.04 435.875 72.96 429.283 72.96C426.211 72.96 423.907 72.576 422.371 71.808C420.835 71.04 419.587 69.856 418.627 68.256V93.12H431.011V94.848H395.491V93.12H400.771V28.032H395.683V26.304H418.435ZM451.545 -5.72205e-06H475.065V70.272H480.441V72H451.929V70.272H457.209V1.72799H451.545V-5.72205e-06ZM507.552 72.96C499.296 72.96 493.088 70.848 488.928 66.624C484.832 62.336 482.784 56.416 482.784 48.864C482.784 41.248 485.088 35.424 489.696 31.392C494.368 27.36 500.288 25.344 507.456 25.344C521.984 25.344 528.96 32.64 528.384 47.232H501.312V50.976C501.312 57.248 502.112 61.984 503.712 65.184C505.312 68.384 508.096 69.984 512.064 69.984C519.488 69.984 524.352 66.016 526.656 58.08L528.384 58.368C527.168 62.976 524.96 66.56 521.76 69.12C518.624 71.68 513.888 72.96 507.552 72.96ZM501.408 45.312H511.296V40.608C511.296 35.424 510.976 31.904 510.336 30.048C509.76 28.128 508.544 27.168 506.688 27.168C504.896 27.168 503.552 28.192 502.656 30.24C501.824 32.224 501.408 35.68 501.408 40.608V45.312Z" fill="#32302F"/>
</svg>
